<?xml version="1.0"?>
<svg xmlns="http://www.w3.org/2000/svg" id="Capa_1" enable-background="new 0 0 512 512" height="512px" viewBox="0 0 512 512" width="512px"><g><g><path d="m256 190c52.383 0 95-42.617 95-95s-42.617-95-95-95-95 42.617-95 95 42.617 95 95 95zm0-160c35.841 0 65 29.159 65 65s-29.159 65-65 65-65-29.159-65-65 29.159-65 65-65z" data-original="#000000" class="active-path" data-old_color="#000000" fill="#FFFDFD"/><path d="m226 110h60c8.284 0 15-6.716 15-15s-6.716-15-15-15h-60c-8.284 0-15 6.716-15 15s6.716 15 15 15z" data-original="#000000" class="active-path" data-old_color="#000000" fill="#FFFDFD"/><path d="m220.988 452c.252 0 .506-.006.761-.019 8.274-.414 14.646-7.457 14.232-15.73l-4-80c-.414-8.273-7.452-14.638-15.73-14.232-8.274.414-14.646 7.457-14.232 15.73l4 80c.4 8.019 7.028 14.251 14.969 14.251z" data-original="#000000" class="active-path" data-old_color="#000000" fill="#FFFDFD"/><path d="m290.251 451.981c.256.013.509.019.762.019 7.939 0 14.567-6.232 14.969-14.251l4-80c.413-8.273-5.958-15.316-14.232-15.73-8.287-.422-15.316 5.959-15.73 14.232l-4 80c-.415 8.273 5.957 15.316 14.231 15.73z" data-original="#000000" class="active-path" data-old_color="#000000" fill="#FFFDFD"/><path d="m136.166 439.225c1.116 7.439 7.515 12.777 14.815 12.777.74 0 1.489-.055 2.244-.168 8.192-1.229 13.838-8.866 12.609-17.059l-12-80c-1.229-8.192-8.864-13.838-17.059-12.609-8.192 1.229-13.838 8.866-12.609 17.059z" data-original="#000000" class="active-path" data-old_color="#000000" fill="#FFFDFD"/><path d="m358.774 451.834c.755.113 1.504.168 2.244.168 7.3 0 13.7-5.339 14.815-12.776l12-80c1.229-8.193-4.416-15.831-12.608-17.06-8.203-1.23-15.831 4.416-17.06 12.608l-12 80c-1.227 8.194 4.417 15.831 12.609 17.06z" data-original="#000000" class="active-path" data-old_color="#000000" fill="#FFFDFD"/><path d="m467 222h-6.56l50.176-108.714c3.472-7.522.188-16.434-7.333-19.905-7.523-3.472-16.434-.188-19.905 7.333l-55.979 121.286h-342.798l-55.978-121.286c-3.471-7.521-12.383-10.806-19.905-7.333-7.521 3.472-10.805 12.383-7.333 19.905l50.175 108.714h-6.56c-24.813 0-45 20.187-45 45 0 20.999 14.459 38.681 33.944 43.622l38.036 152.143c7.247 28.989 33.178 49.235 63.059 49.235h241.922c29.88 0 55.812-20.246 63.06-49.235l38.035-152.143c19.485-4.941 33.944-22.622 33.944-43.622 0-24.813-20.186-45-45-45zm-56.083 233.488c-3.903 15.61-17.866 26.512-33.956 26.512h-241.922c-16.09 0-30.053-10.901-33.955-26.511l-35.872-143.489h381.576zm56.083-173.488h-422c-8.271 0-15-6.729-15-15s6.729-15 15-15h422c8.271 0 15 6.729 15 15s-6.728 15-15 15z" data-original="#000000" class="active-path" data-old_color="#000000" fill="#FFFDFD"/></g></g> </svg>
